<?xml version="1.0" encoding="utf-8"?>
<!-- Generator: Adobe Illustrator 24.1.1, SVG Export Plug-In . SVG Version: 6.00 Build 0)  -->
<svg version="1.1" id="Layer_1" xmlns="http://www.w3.org/2000/svg" xmlns:xlink="http://www.w3.org/1999/xlink" x="0px" y="0px"
	 viewBox="0 0 199.7 190.9" style="enable-background:new 0 0 199.7 190.9;" xml:space="preserve">
<style type="text/css">
	.st0{fill:#3787FF;}
	.st1{fill:#FFFFFF;}
</style>
<path class="st0" d="M15.8,19.8C9.6,28,5.2,37.4,2.8,47.4c-3.2,13.8-3.2,28.1-2.4,42.3c2.5,45.7,25.2,95,75.7,100.6
	c33.9,3.8,66-10,88.5-34.1c28.5-30.5,55.9-92,11.9-130.5c-28.4-24.8-49-7.7-83.8-15.8C76.4,6.1,60.1-3.2,43,1.1
	C31.8,4,22.6,10.9,15.8,19.8z"/>
<path class="st1" d="M69,98.8c0-22.4,12.8-41.6,30.9-49.3c18.1,7.7,30.9,26.9,30.9,49.3c0,3.6-0.3,7.1-1,10.6l8.6,8.1
	c0.7,0.7,0.9,1.8,0.4,2.7l-11,20.2c-0.6,1.1-1.9,1.5-3,0.9c-0.2-0.1-0.4-0.2-0.5-0.4l-9.8-9.8c-0.8-0.8-1.9-1.3-3.1-1.3H88.4
	c-1.2,0-2.3,0.5-3.1,1.3l-9.8,9.8c-0.9,0.9-2.2,0.9-3.1,0c-0.2-0.2-0.3-0.3-0.4-0.5l-11-20.2c-0.5-0.9-0.3-2,0.4-2.7l8.6-8.1
	C69.3,105.9,69,102.4,69,98.8z M75.5,128.3l3.6-3.6c2.5-2.5,5.8-3.9,9.3-3.9h22.8c3.5,0,6.9,1.4,9.3,3.9l3.6,3.6l4.3-7.9l-4.8-4.6
	c-2.2-2.1-3.2-5.1-2.6-8c0.6-3,0.8-6,0.8-9c0-17.1-8.8-32.2-22-39.5c-13.2,7.3-22,22.4-22,39.5c0,3,0.3,6,0.8,9c0.5,2.9-0.4,6-2.6,8
	l-4.8,4.6L75.5,128.3z M99.8,98.8C95,98.8,91,94.9,91,90s3.9-8.8,8.8-8.8c4.9,0,8.8,3.9,8.8,8.8C108.6,94.9,104.7,98.8,99.8,98.8
	L99.8,98.8z"/>
</svg>
