<svg id="Layer_1" data-name="Layer 1" xmlns="http://www.w3.org/2000/svg" xmlns:xlink="http://www.w3.org/1999/xlink" viewBox="0 0 250 150"><defs><linearGradient id="linear-gradient" x1="153.41" y1="85.88" x2="136.79" y2="76.29" gradientUnits="userSpaceOnUse"><stop offset="0" stop-color="#41d1f3"/><stop offset="0.11" stop-color="#3cb4ea"/><stop offset="0.4" stop-color="#3171d6"/><stop offset="0.64" stop-color="#2940c8"/><stop offset="0.82" stop-color="#2421be"/><stop offset="0.93" stop-color="#2216bb"/></linearGradient><linearGradient id="linear-gradient-2" x1="152.35" y1="44.82" x2="136.19" y2="35.48" xlink:href="#linear-gradient"/><linearGradient id="linear-gradient-3" x1="148.47" y1="72.03" x2="113.84" y2="52.03" xlink:href="#linear-gradient"/></defs><g id="Logo2"><path d="M127.91,90.11a25.84,25.84,0,0,1-7.68-1.4,27.24,27.24,0,0,1-6.89-3.57,30.27,30.27,0,0,1-3.64-2.91,29.88,29.88,0,0,1-5.64-7.15,29.23,29.23,0,0,1-3-7.66,27.21,27.21,0,0,1,5.8-24,29.88,29.88,0,0,1,9.05-7.1,32,32,0,0,1,8.54-2.9,33.07,33.07,0,0,1,3.75-.51" style="fill:none;stroke:#2216bb;stroke-miterlimit:10;stroke-width:7px"/><path d="M128.72,78c-1.25-.22-10.27-1.84-14.16-9.16a16.17,16.17,0,0,1,2.9-19.12,18,18,0,0,1,8.39-4.24c.64-.17,2.08-.27,2.46-.34" style="fill:none;stroke:#2216bb;stroke-miterlimit:10;stroke-width:8px"/><path d="M136.91,76.08l5.7-3.8a6.09,6.09,0,0,1,3.36-.59,5.51,5.51,0,0,1,3.8,2.27c.37.56.31,1,.89,1.45a2.63,2.63,0,0,0,1.63.51l.23,0a2.45,2.45,0,0,0,.71-.25c.54-.31.59-.87,1-1.12a1.75,1.75,0,0,1,2.23.78,1.71,1.71,0,0,1-.33,2,1.64,1.64,0,0,1-2,.23c-.29-.24-.33-.37-.63-.34s-.55-.2-.78,0l-1.51.29-.23.05-.21,2.2a6.83,6.83,0,0,1-.4.75,10.28,10.28,0,0,1-4.23,3.86c-.46,1.25-.31,1.81-.06,2.09s.54.28,1.11.82c.33.32.32.4.52.5.48.25.81-.06,1.41,0a2.15,2.15,0,0,1,1.34.93,2,2,0,0,1,.27,1.8,1.94,1.94,0,0,1-1.19.94,2,2,0,0,1-1.81,0,2.83,2.83,0,0,1-.75-1.78,1.77,1.77,0,0,0-.57-.94,2.24,2.24,0,0,0-.51-.43,4.5,4.5,0,0,0-1.06-.68,3.91,3.91,0,0,0-2-.4,12.78,12.78,0,0,0-2.75.82,26.5,26.5,0,0,1-2.55.77l-.63.15Q136.9,82.54,136.91,76.08Z" style="fill:url(#linear-gradient)"/><path d="M136.94,34.28c.38-.25.9.27,2.18.25a1.6,1.6,0,0,0,1.26-.33c.31-.37.19-1,.08-1.51-.17-.86-.43-.92-.42-1.43a1.85,1.85,0,0,1,1-1.59,2.19,2.19,0,0,1,1.93.25,2,2,0,0,1,.92.76,2,2,0,0,1-.09,1.92,3.24,3.24,0,0,1-1.17,1c-.65.42-.82.37-.92.59-.37.78,1.33,2.26,1.42,2.34a6.26,6.26,0,0,0,2.18,1.18c1,.29,1.86.57,2.6.08a1.9,1.9,0,0,0,.84-1.34c.08-.72-.39-.9-.42-1.76a2.41,2.41,0,0,1,.59-1.68,2.53,2.53,0,0,1,1.84-.67,3.3,3.3,0,0,1,1.26.25,2.55,2.55,0,0,1,1.68,2.77,2.66,2.66,0,0,1-.42,1.42,2.58,2.58,0,0,1-1.51,1,4.18,4.18,0,0,1-1.26.08c-.85,0-1-.16-1.34,0a1.59,1.59,0,0,0-.59,1.18,2.74,2.74,0,0,0,.34,1.51,13.7,13.7,0,0,0,.75,1.25,8.21,8.21,0,0,1,.8,1.64,8.61,8.61,0,0,1,.54,1.72,4.4,4.4,0,0,1-.42,2.51,6.61,6.61,0,0,1-1.84,2.6,5.65,5.65,0,0,1-2.35,1.26,5.75,5.75,0,0,1-3.18-.17,6.48,6.48,0,0,1-2.68-1.51c-.78-.74-1-.89-1.57-1.37a13.46,13.46,0,0,1-1.54-1.14,3.57,3.57,0,0,1-.5-.67q0-5.16-.08-10.31C136.52,35,136.68,34.45,136.94,34.28Z" style="fill:url(#linear-gradient-2)"/><circle cx="115.17" cy="86.98" r="2.49" style="fill:#2216bb"/><circle cx="100.33" cy="63.31" r="2.49" style="fill:#2216bb"/><circle cx="108.49" cy="66.05" r="1.87" style="fill:#2216bb"/><circle cx="111.74" cy="49.22" r="2.49" style="fill:#2216bb"/><circle cx="119.62" cy="40.9" r="1.98" style="fill:#2216bb"/><circle cx="124.84" cy="46.13" r="1.84" style="fill:#2216bb"/><path d="M114.22,68.43l-5.73-2.38.31,1.76,6.37,18,1.87-.47,8.47-6.52c.56-.5-.38.2.56-.5" style="fill:none;stroke:#2216bb;stroke-miterlimit:10;stroke-width:4px"/><line x1="100.65" y1="62.51" x2="108.49" y2="66.05" style="fill:none;stroke:#2216bb;stroke-miterlimit:10;stroke-width:4px"/><polyline points="100.33 63.31 111.73 49.22 105.15 45.62" style="fill:none;stroke:#2216bb;stroke-miterlimit:10;stroke-width:4px"/><polyline points="111.73 49.22 119.61 40.9 115.42 36.55" style="fill:none;stroke:#2216bb;stroke-miterlimit:10;stroke-width:4px"/><polyline points="128.36 38.91 119.61 40.9 125.08 46.13" style="fill:none;stroke:#2216bb;stroke-miterlimit:10;stroke-width:4px"/><rect x="127.97" y="25.23" width="6.37" height="73.6" rx="3.19" style="fill:url(#linear-gradient-3)"/><path d="M87.83,117.4a8.57,8.57,0,0,1-3.24-.59A7.57,7.57,0,0,1,82,115.16a7.49,7.49,0,0,1-1.7-2.51,8.44,8.44,0,0,1,0-6.3A7.37,7.37,0,0,1,82,103.84a7.71,7.71,0,0,1,2.58-1.65,8.57,8.57,0,0,1,3.24-.59,9,9,0,0,1,3.18.56,6.54,6.54,0,0,1,2.51,1.7l-1.05,1a5.52,5.52,0,0,0-2.11-1.41,7.25,7.25,0,0,0-5.08,0,6.17,6.17,0,0,0-3.47,3.4,6.8,6.8,0,0,0,0,5.12,6.17,6.17,0,0,0,3.47,3.4,7,7,0,0,0,2.6.48,6.75,6.75,0,0,0,2.48-.45,5.79,5.79,0,0,0,2.11-1.42l1.05,1.05a6.54,6.54,0,0,1-2.51,1.7A8.66,8.66,0,0,1,87.83,117.4Z" style="fill:#2c54ce"/><path d="M105.39,117.38a6,6,0,0,1-3-.77,5.58,5.58,0,0,1-2.11-2.12,6.43,6.43,0,0,1,0-6.14,5.57,5.57,0,0,1,2.11-2.09,6.48,6.48,0,0,1,6.11,0,5.57,5.57,0,0,1,2.11,2.09,6,6,0,0,1,.77,3.07,6.08,6.08,0,0,1-.77,3.07,5.51,5.51,0,0,1-2.12,2.11A6.1,6.1,0,0,1,105.39,117.38Zm0-1.4a4.46,4.46,0,0,0,2.24-.56,4.09,4.09,0,0,0,1.54-1.6,5.32,5.32,0,0,0,0-4.79,4,4,0,0,0-1.54-1.58,4.61,4.61,0,0,0-4.44,0,4.06,4.06,0,0,0-1.55,1.58,5.23,5.23,0,0,0,0,4.79,4.23,4.23,0,0,0,1.54,1.6A4.35,4.35,0,0,0,105.39,116Z" style="fill:#2c54ce"/><path d="M120.48,117.27V103.15H115v-1.42h12.57v1.42h-5.47v14.12Z" style="fill:#2c54ce"/><path d="M138,117.38a6.5,6.5,0,0,1-3.2-.77,5.59,5.59,0,0,1-2.15-2.11,6,6,0,0,1-.77-3.07,6.14,6.14,0,0,1,.74-3.06,5.42,5.42,0,0,1,2-2.1,6,6,0,0,1,5.84,0,5.3,5.3,0,0,1,2,2.08,6.37,6.37,0,0,1,.73,3.1,1.85,1.85,0,0,1,0,.23,2.26,2.26,0,0,0,0,.26H133.11v-1.18h9.3l-.62.47a4.59,4.59,0,0,0-.54-2.25,4,4,0,0,0-1.48-1.55,4.12,4.12,0,0,0-2.15-.55,4.17,4.17,0,0,0-2.15.55A3.8,3.8,0,0,0,134,109a4.71,4.71,0,0,0-.53,2.28v.25a4.59,4.59,0,0,0,.58,2.34,4.18,4.18,0,0,0,1.65,1.58,5.06,5.06,0,0,0,2.4.56,5,5,0,0,0,2-.38,4.09,4.09,0,0,0,1.59-1.15l.89,1a5,5,0,0,1-2,1.42A6.46,6.46,0,0,1,138,117.38Z" style="fill:#2c54ce"/><path d="M155.78,117.38a6.22,6.22,0,0,1-3.1-.77,5.49,5.49,0,0,1-2.14-2.11,6.45,6.45,0,0,1,0-6.15,5.45,5.45,0,0,1,2.14-2.09,6.33,6.33,0,0,1,3.1-.76,6.16,6.16,0,0,1,2.68.58,4.39,4.39,0,0,1,1.89,1.73l-1.18.8a3.66,3.66,0,0,0-1.49-1.31,4.67,4.67,0,0,0-4.17.15,4,4,0,0,0-1.57,1.58,5.26,5.26,0,0,0,0,4.8,4.14,4.14,0,0,0,1.57,1.59,4.54,4.54,0,0,0,2.24.56,4.43,4.43,0,0,0,1.93-.42,3.69,3.69,0,0,0,1.49-1.29l1.18.8a4.43,4.43,0,0,1-1.89,1.72A6,6,0,0,1,155.78,117.38Z" style="fill:#2c54ce"/><path d="M173.64,105.5a5.51,5.51,0,0,1,2.5.55,3.9,3.9,0,0,1,1.69,1.65,5.72,5.72,0,0,1,.61,2.8v6.77h-1.58v-6.62a3.81,3.81,0,0,0-.92-2.78,3.43,3.43,0,0,0-2.58-1,4.54,4.54,0,0,0-2.17.5,3.48,3.48,0,0,0-1.42,1.45,4.82,4.82,0,0,0-.5,2.27v6.13H167.7V100.8h1.57v8l-.31-.6a4.21,4.21,0,0,1,1.78-2A5.6,5.6,0,0,1,173.64,105.5Z" style="fill:#2c54ce"/></g></svg>