<svg xmlns="http://www.w3.org/2000/svg" xmlns:xlink="http://www.w3.org/1999/xlink" viewBox="0 0 209.32 261.96"><defs><linearGradient id="linear-gradient" x1="197.75" y1="215.88" x2="138.61" y2="181.74" gradientUnits="userSpaceOnUse"><stop offset="0" stop-color="#41d1f3"/><stop offset="0.11" stop-color="#3cb4ea"/><stop offset="0.4" stop-color="#3171d6"/><stop offset="0.64" stop-color="#2940c8"/><stop offset="0.82" stop-color="#2421be"/><stop offset="0.93" stop-color="#2216bb"/></linearGradient><linearGradient id="linear-gradient-2" x1="193.98" y1="69.72" x2="136.46" y2="36.51" xlink:href="#linear-gradient"/><linearGradient id="linear-gradient-3" x1="180.85" y1="166.95" x2="56.24" y2="95.01" xlink:href="#linear-gradient"/></defs><g id="Layer_2" data-name="Layer 2"><g id="Layer_1-2" data-name="Layer 1"><g id="Logo2"><path d="M107,230.93a93.12,93.12,0,0,1-27.34-5,98,98,0,0,1-24.51-12.73,111.72,111.72,0,0,1-13-10.35,107,107,0,0,1-20-25.46,104.09,104.09,0,0,1-10.74-27.25A97.07,97.07,0,0,1,32.05,64.64a106.18,106.18,0,0,1,32.2-25.26A117.26,117.26,0,0,1,108,27.25" style="fill:none;stroke:#2216bb;stroke-miterlimit:10;stroke-width:7px"/><path d="M109.89,187.77c-4.48-.81-36.57-6.57-50.42-32.62a58.9,58.9,0,0,1-6.76-28.65c.12-4.26,1.14-23.89,17.11-39.38C80.6,76.66,94.13,73.41,99.65,72c2.29-.58,7.41-1,8.75-1.19" style="fill:none;stroke:#2216bb;stroke-miterlimit:10;stroke-width:8px"/><path d="M139,181l20.29-13.52a21.82,21.82,0,0,1,12-2.12c6.45,1,11,4.35,13.5,8.08,1.32,2,1.13,3.61,3.18,5.18a9.61,9.61,0,0,0,5.8,1.8,6.59,6.59,0,0,0,.84-.1,8.87,8.87,0,0,0,2.51-.91c1.92-1.08,2.08-3.07,3.58-4,2-1.21,6.29-.45,8,2.79a6.1,6.1,0,0,1-1.19,7.16c-2.18,2.05-5.6,2.12-7.16.79-1-.85-1.16-1.31-2.24-1.19-1.46.17-1.95-.71-2.76,0-1.77.37-3.56.71-5.37,1.05l-.82.14-.75,7.84c-.41.88-.88,1.78-1.41,2.68a36.52,36.52,0,0,1-15.07,13.73c-1.63,4.44-1.1,6.45-.23,7.46s1.92,1,4,2.9c1.19,1.13,1.13,1.42,1.86,1.79,1.71.89,2.88-.23,5,.08a7.52,7.52,0,0,1,4.77,3.28c.44.66,2.25,3.58,1,6.42-.93,2.07-3,2.85-4.25,3.35-1,.41-4.31,1.67-6.41.15-1.72-1.24-2.25-4-2.69-6.34a6.29,6.29,0,0,0-2-3.36,9.24,9.24,0,0,0-1.83-1.53,16.2,16.2,0,0,0-3.77-2.42,14,14,0,0,0-7.16-1.42c-.9,0-1.5.13-9.77,2.91-3.15,1.06-5.57,1.89-9.1,2.76L139,227Q139,204,139,181Z" style="fill:url(#linear-gradient)"/><path d="M139.13,32.22c1.35-.87,3.2,1,7.76.9,1.89,0,3.53-.07,4.48-1.2,1.09-1.3.69-3.38.29-5.37-.59-3-1.52-3.24-1.49-5.07a6.61,6.61,0,0,1,3.58-5.67c2.64-1.23,5.31.11,6.87.9a7.07,7.07,0,0,1,3.28,2.68,7,7,0,0,1-.3,6.87c-.88,1.45-2.17,2.29-4.18,3.58-2.32,1.49-2.91,1.3-3.28,2.08-1.32,2.79,4.75,8.08,5.07,8.36A21.79,21.79,0,0,0,169,44.46c3.43,1,6.61,2,9.25.29a6.85,6.85,0,0,0,3-4.77c.3-2.56-1.4-3.19-1.49-6.27a8.47,8.47,0,0,1,2.09-6c2.2-2.32,5.31-2.37,6.56-2.39a11.09,11.09,0,0,1,4.48.9,9.64,9.64,0,0,1,4.77,3.87,10,10,0,0,1,1.2,6,9.45,9.45,0,0,1-1.5,5.07,9.21,9.21,0,0,1-5.37,3.58,15.29,15.29,0,0,1-4.47.3c-3.05-.07-3.71-.6-4.78,0-1.71,1-2,3.44-2.08,4.18a9.75,9.75,0,0,0,1.19,5.37c.9,2,1.37,2.06,2.68,4.47a29.2,29.2,0,0,1,2.84,5.82A35.42,35.42,0,0,1,189.26,71c.64,3.51-.5,6.42-1.49,8.95a23.59,23.59,0,0,1-6.57,9.25,20,20,0,0,1-8.35,4.47,20.61,20.61,0,0,1-11.34-.59A23.42,23.42,0,0,1,152,87.72c-2.76-2.64-3.52-3.17-5.57-4.88-1.85-1.55-3.43-2-5.47-4.07a11.9,11.9,0,0,1-1.79-2.39Q139,58,138.84,39.68C137.63,34.61,138.21,32.82,139.13,32.22Z" style="fill:url(#linear-gradient-2)"/><circle cx="61.66" cy="219.79" r="8.85" style="fill:#2216bb"/><circle cx="8.85" cy="135.55" r="8.85" style="fill:#2216bb"/><circle cx="37.89" cy="145.3" r="6.66" style="fill:#2216bb"/><circle cx="49.43" cy="85.38" r="8.85" style="fill:#2216bb"/><circle cx="77.47" cy="55.77" r="7.06" style="fill:#2216bb"/><circle cx="96.07" cy="74.39" r="6.56" style="fill:#2216bb"/><path d="M58.28,153.75,37.89,145.3l1.1,6.26,22.67,64.05L68.31,214l30.15-23.21c2-1.79-1.38.72,2-1.79" style="fill:none;stroke:#2216bb;stroke-miterlimit:10;stroke-width:4px"/><line x1="9.97" y1="132.7" x2="37.89" y2="145.3" style="fill:none;stroke:#2216bb;stroke-miterlimit:10;stroke-width:4px"/><polyline points="8.85 135.55 49.43 85.38 26 72.58" style="fill:none;stroke:#2216bb;stroke-miterlimit:10;stroke-width:4px"/><polyline points="49.43 85.38 77.47 55.77 62.53 40.29" style="fill:none;stroke:#2216bb;stroke-miterlimit:10;stroke-width:4px"/><polyline points="108.6 48.7 77.47 55.77 96.94 74.39" style="fill:none;stroke:#2216bb;stroke-miterlimit:10;stroke-width:4px"/><rect x="107.21" width="22.68" height="261.96" rx="9.19" style="fill:url(#linear-gradient-3)"/></g></g></g></svg>