<?xml version="1.0" encoding="utf-8"?>
<!-- Generator: Adobe Illustrator 24.1.1, SVG Export Plug-In . SVG Version: 6.00 Build 0)  -->
<svg version="1.1" id="Layer_1" xmlns="http://www.w3.org/2000/svg" xmlns:xlink="http://www.w3.org/1999/xlink" x="0px" y="0px"
	 viewBox="0 0 199.7 190.9" style="enable-background:new 0 0 199.7 190.9;" xml:space="preserve">
<style type="text/css">
	.st0{fill:#FF9D42;}
	.st1{fill:#FFFFFF;}
</style>
<path class="st0" d="M15.8,19.8C9.6,28,5.2,37.4,2.8,47.4c-3.2,13.8-3.2,28.1-2.4,42.3c2.5,45.7,25.2,95,75.7,100.6
	c33.9,3.8,66-10,88.5-34.1c28.5-30.5,55.9-92,11.9-130.5c-28.4-24.8-49-7.7-83.8-15.8C76.4,6.1,60.1-3.2,43,1.1
	C31.8,4,22.6,10.9,15.8,19.8z"/>
<path class="st1" d="M72.6,122.6h5.5l36.2-36.2l-5.5-5.5l-36.2,36.2V122.6L72.6,122.6z M134.8,130.4H64.9v-16.5l52.2-52.2
	c1.5-1.5,4-1.5,5.5,0c0,0,0,0,0,0l11,11c1.5,1.5,1.5,4,0,5.5c0,0,0,0,0,0l-44.4,44.4h45.7L134.8,130.4L134.8,130.4z M114.3,75.4
	l5.5,5.5l5.5-5.5l-5.5-5.5L114.3,75.4z"/>
</svg>
