<?xml version="1.0" encoding="utf-8"?>
<!-- Generator: Adobe Illustrator 24.1.1, SVG Export Plug-In . SVG Version: 6.00 Build 0)  -->
<svg version="1.1" id="Layer_1" xmlns="http://www.w3.org/2000/svg" xmlns:xlink="http://www.w3.org/1999/xlink" x="0px" y="0px"
	 viewBox="0 0 199.7 190.9" style="enable-background:new 0 0 199.7 190.9;" xml:space="preserve">
<style type="text/css">
	.st0{fill:#3787FF;}
	.st1{fill:#FFFFFF;}
</style>
<path class="st0" d="M15.8,19.8C9.6,28,5.2,37.4,2.8,47.4c-3.2,13.8-3.2,28.1-2.4,42.3c2.5,45.7,25.2,95,75.7,100.6
	c33.9,3.8,66-10,88.5-34.1c28.5-30.5,55.9-92,11.9-130.5c-28.4-24.8-49-7.7-83.8-15.8C76.4,6.1,60.1-3.2,43,1.1
	C31.8,4,22.6,10.9,15.8,19.8z"/>
<path class="st1" d="M120.2,131.7h31.8c1.7,0,3.1,1.3,3.1,3c0,1.7-1.4,3-3.1,3H47.8c-1.7,0-3.1-1.3-3.1-3c0-1.7,1.4-3,3.1-3h52.1
	l0,0c8.1,0,15.9-3.1,21.7-8.8c12-11.7,12-30.7,0-42.4c-2.3-2.3-4.9-4.1-7.7-5.5c-0.1,0-0.2-0.1-0.3-0.2c-10.2-4.9-22.6-4-32,2.9h9.2
	c1.7,0,3.1,1.3,3.1,3c0,1.7-1.4,3-3.1,3H72.3c-1.7,0-3.1-1.3-3.1-3v-18c0-1.7,1.4-3,3.1-3c1.7,0,3.1,1.3,3.1,3V75
	c9-7.9,20.9-10.7,32-8.4c-0.9-2.2-1.4-4.6-1.4-6.8c0-9.9,8.2-18,18.4-18h1.8l-0.9-0.9c-1.2-1.2-1.2-3.1,0-4.2c1.2-1.2,3.1-1.2,4.3,0
	l6.1,6c1.2,1.2,1.2,3.1,0,4.2l-6.1,6c-1.2,1.2-3.1,1.2-4.3,0c-1.2-1.2-1.2-3.1,0-4.2l0.9-0.9h-1.8c-6.8,0-12.3,5.4-12.3,12
	c0,3.4,2,7.6,4.6,10c3.3,1.7,6.4,3.8,9.1,6.5c14.4,14,14.4,36.8,0,50.9C124.1,128.9,122.2,130.4,120.2,131.7L120.2,131.7z"/>
</svg>
